<svg width="60" height="60" viewBox="0 0 60 60" fill="none" xmlns="http://www.w3.org/2000/svg">
<path d="M0 0H55C57.7614 0 60 2.23858 60 5V55C60 57.7614 57.7614 60 55 60H0V0Z" fill="#4054B2"/>
<circle r="24" transform="matrix(-1 0 0 1 30 30)" fill="white"/>
<path d="M30 7.32576C17.472 7.32576 7.374 17.3658 7.374 29.7022C7.374 42.0921 17.526 52.0787 30 52.0787C42.528 52.0787 52.626 42.0921 52.626 29.7022C52.626 17.3124 42.528 7.32576 30 7.32576ZM30 3C44.904 3 57 14.9626 57 29.7022C57 44.4419 44.904 56.4044 30 56.4044C15.096 56.4044 3 44.4419 3 29.7022C3 14.9626 15.096 3 30 3ZM30 9.0347C41.556 9.0347 50.898 18.2737 50.898 29.7022C50.898 41.1308 41.556 50.3697 30 50.3697C18.444 50.3697 9.102 41.1308 9.102 29.7022C9.102 18.2737 18.444 9.0347 30 9.0347ZM30 13.7877C27.84 13.7877 26.058 15.4966 26.058 17.6862C26.058 19.8758 27.84 21.5313 30 21.5313C32.16 21.5313 33.942 19.8224 33.942 17.6328C33.942 15.4432 32.16 13.7877 30 13.7877ZM17.202 24.3084C20.334 25.056 23.25 25.6969 26.166 26.0173C26.058 36.9118 24.816 39.2616 23.466 42.7863C23.088 43.801 23.574 44.9225 24.6 45.2963C25.626 45.6702 26.76 45.1895 27.138 44.1748C28.11 41.7716 28.974 39.7957 29.568 35.7369H30.648C31.188 39.7957 32.106 41.7716 33.078 44.1748C33.456 45.1895 34.59 45.6702 35.616 45.2963C36.642 44.9225 37.128 43.801 36.75 42.7863C35.346 39.2616 34.104 36.9118 34.05 26.0173C36.966 25.6969 39.882 25.056 43.014 24.3084C43.932 24.0948 44.526 23.1869 44.31 22.2256C44.094 21.3177 43.176 20.7303 42.204 20.9439C31.674 23.4005 28.65 23.4005 18.174 20.9439C17.256 20.7303 16.284 21.3177 16.068 22.2256C15.69 23.1869 16.23 24.0948 17.202 24.3084Z" fill="#4054B2"/>
</svg>
