<svg width="20" height="21" viewBox="0 0 20 21" fill="none" xmlns="http://www.w3.org/2000/svg">
<path d="M13.7909 10.7075L19.4767 5.05436C20.1744 4.36063 20.1744 3.23587 19.4767 2.54158L18.2131 1.28519C17.5153 0.591461 16.3841 0.591461 15.6858 1.28519L10 6.93838L4.3142 1.28519C3.61648 0.591461 2.48523 0.591461 1.78693 1.28519L0.523295 2.54158C-0.174432 3.2353 -0.174432 4.36007 0.523295 5.05436L6.20909 10.7075L0.523295 16.3607C-0.174432 17.0545 -0.174432 18.1792 0.523295 18.8735L1.78693 20.1299C2.48466 20.8236 3.61648 20.8236 4.3142 20.1299L10 14.4767L15.6858 20.1299C16.3835 20.8236 17.5153 20.8236 18.2131 20.1299L19.4767 18.8735C20.1744 18.1798 20.1744 17.055 19.4767 16.3607L13.7909 10.7075Z" fill="white"/>
</svg>
